<?xml version="1.0" standalone="no"?>
<!DOCTYPE svg PUBLIC "-//W3C//DTD SVG 20010904//EN"
 "http://www.w3.org/TR/2001/REC-SVG-20010904/DTD/svg10.dtd">
<svg version="1.0" xmlns="http://www.w3.org/2000/svg"
 width="900.000000pt" height="801.000000pt" viewBox="0 0 900.000000 801.000000"
 preserveAspectRatio="xMidYMid meet">
<metadata>
Created by potrace 1.10, written by Peter Selinger 2001-2011
</metadata>
<g transform="translate(0.000000,801.000000) scale(0.100000,-0.100000)"
fill="#000000" stroke="none">
<path d="M5120 7224 c-19 -9 -96 -37 -170 -64 -74 -26 -153 -55 -175 -65 -22
-9 -74 -29 -115 -45 -41 -15 -160 -60 -265 -100 -104 -39 -237 -89 -295 -110
-58 -22 -148 -55 -200 -75 -52 -20 -135 -52 -185 -70 -118 -43 -944 -353
-1135 -426 -68 -26 -410 -154 -615 -231 -44 -16 -107 -39 -140 -51 -34 -13
-61 -29 -63 -38 -3 -14 43 -56 249 -232 34 -29 76 -63 94 -77 18 -14 93 -77
166 -141 150 -130 263 -225 359 -304 36 -29 93 -80 128 -112 l62 -59 0 -2200
c-1 -1924 1 -2200 14 -2208 14 -9 33 -4 76 23 8 5 33 18 55 28 51 25 567 288
700 358 55 29 233 120 395 203 162 82 331 168 375 192 179 94 259 131 272 126
7 -3 18 -16 23 -28 10 -23 101 -383 125 -493 33 -152 45 -200 59 -248 8 -29
17 -65 21 -80 7 -34 31 -45 59 -27 24 16 102 57 391 205 270 138 510 262 655
338 63 33 189 98 280 143 91 45 173 91 183 102 16 18 15 27 -29 193 -66 247
-137 516 -188 714 -24 94 -56 213 -70 265 -15 52 -33 126 -42 164 -8 38 -32
130 -53 205 -50 173 -121 443 -132 499 -5 24 -18 73 -29 109 -18 59 -19 68 -6
88 8 13 34 30 58 38 24 9 75 27 113 42 39 14 95 35 125 45 30 10 82 28 115 40
33 11 66 28 73 37 9 13 12 288 12 1297 0 705 -4 1286 -8 1292 -9 13 -128 94
-138 94 -5 0 -24 11 -43 23 -20 13 -49 32 -65 43 -16 10 -49 30 -72 44 -113
66 -208 123 -309 185 -60 37 -159 97 -220 133 -60 36 -132 79 -160 97 -219
139 -246 149 -315 119z m85 -399 c22 -14 55 -32 74 -41 19 -9 49 -26 65 -39
17 -13 65 -42 106 -65 41 -24 82 -48 90 -56 9 -7 43 -27 75 -45 33 -17 67 -37
75 -44 8 -7 35 -24 60 -38 25 -14 74 -43 110 -66 36 -23 76 -46 89 -51 13 -6
37 -22 53 -35 16 -14 36 -25 43 -25 8 0 21 -10 29 -22 14 -20 16 -139 16
-1080 0 -1045 0 -1058 -20 -1078 -11 -11 -28 -20 -38 -20 -10 0 -26 -6 -37
-13 -11 -7 -63 -28 -115 -46 -89 -31 -177 -64 -260 -96 -19 -7 -47 -16 -62
-19 -41 -9 -51 -36 -33 -88 15 -46 85 -304 116 -428 19 -79 79 -308 124 -475
15 -55 37 -140 49 -190 13 -49 30 -115 39 -145 9 -30 25 -91 37 -135 11 -44
37 -145 59 -225 21 -80 42 -163 46 -184 4 -22 17 -74 30 -115 57 -187 76 -276
66 -302 -7 -20 -45 -44 -173 -108 -89 -45 -179 -90 -198 -101 -19 -10 -80 -41
-136 -68 -55 -27 -158 -79 -229 -116 -70 -36 -136 -66 -145 -66 -24 0 -41 24
-50 68 -12 57 -127 534 -155 642 -14 52 -57 228 -96 390 -117 492 -159 663
-173 715 -8 28 -19 75 -26 105 -6 30 -16 66 -21 80 -5 14 -16 59 -23 100 -8
41 -23 108 -35 147 -12 40 -21 81 -21 92 0 10 -7 24 -15 31 -12 10 -31 7 -103
-20 -48 -18 -130 -48 -182 -67 -52 -18 -101 -40 -108 -47 -11 -11 -13 -165
-13 -854 1 -484 -3 -851 -8 -865 -12 -30 -36 -45 -306 -181 -121 -62 -229
-117 -240 -123 -11 -7 -33 -18 -50 -26 -99 -48 -284 -145 -308 -161 -34 -23
-85 -25 -98 -5 -5 8 -9 752 -9 1736 l0 1722 23 24 c14 15 71 42 152 72 216 78
238 86 300 110 180 71 477 175 499 175 14 0 29 -8 35 -17 5 -10 9 -183 9 -401
0 -242 4 -388 10 -394 7 -7 17 -6 31 1 19 11 172 67 311 116 36 12 128 46 205
74 77 29 178 66 225 82 46 16 91 36 99 44 12 12 14 117 14 702 l0 688 -29 -1
c-16 -1 -58 -13 -94 -27 -36 -14 -146 -54 -245 -91 -99 -36 -247 -90 -330
-121 -82 -31 -179 -67 -215 -79 -63 -22 -211 -76 -315 -116 -27 -10 -79 -30
-115 -43 -128 -48 -315 -116 -340 -122 -14 -4 -38 -13 -55 -20 -72 -32 -191
-75 -210 -75 -30 0 -41 8 -266 200 -48 41 -118 100 -154 130 -143 116 -240
204 -249 221 -12 25 7 46 47 55 18 3 50 16 72 27 22 11 60 26 85 33 25 7 128
45 230 84 102 39 199 76 215 82 17 5 91 33 165 60 74 28 160 60 190 71 30 11
78 30 105 42 28 13 61 26 75 30 26 8 282 103 505 188 72 27 153 58 180 68 28
10 79 29 115 43 36 13 133 49 215 79 153 56 321 120 410 156 65 26 82 26 130
-4z"/>
</g>
</svg>
