<?xml version="1.0" standalone="no"?>
<!DOCTYPE svg PUBLIC "-//W3C//DTD SVG 20010904//EN"
 "http://www.w3.org/TR/2001/REC-SVG-20010904/DTD/svg10.dtd">
<svg version="1.0" xmlns="http://www.w3.org/2000/svg"
 width="275.000000pt" height="183.000000pt" viewBox="0 0 275.000000 183.000000"
 preserveAspectRatio="xMidYMid meet">
<metadata>
Created by potrace 1.10, written by Peter Selinger 2001-2011
</metadata>
<g transform="translate(0.000000,183.000000) scale(0.100000,-0.100000)"
fill="#000000" stroke="none">
<path d="M0 915 l0 -915 1375 0 1375 0 0 915 0 915 -1375 0 -1375 0 0 -915z
m1801 657 c123 -35 212 -101 256 -190 43 -88 39 -145 -40 -479 -36 -155 -73
-297 -83 -315 -81 -159 -263 -281 -524 -349 -105 -28 -321 -36 -417 -16 -202
44 -327 168 -327 326 1 83 123 610 158 679 89 175 345 321 638 362 92 13 262
4 339 -18z"/>
<path d="M1420 1519 c-157 -26 -278 -100 -322 -196 -20 -45 -178 -719 -178
-761 0 -13 13 -36 28 -52 43 -43 117 -60 246 -59 134 2 212 16 95 18 -130 2
-219 43 -235 108 -4 13 24 158 66 341 40 174 75 328 78 341 10 47 81 105 162
131 64 21 94 25 210 25 185 0 272 -32 315 -116 24 -46 34 8 -134 -726 -16 -68
-25 -123 -21 -123 19 0 108 93 132 137 32 58 158 589 158 665 0 125 -99 224
-262 263 -69 16 -249 18 -338 4z"/>
<path d="M962 1305 c-33 -31 -70 -75 -81 -98 -28 -59 -151 -595 -151 -660 1
-176 209 -292 490 -273 218 15 359 78 425 190 18 30 48 144 105 393 44 193 80
365 80 383 0 42 -43 82 -107 101 -56 16 -289 19 -315 4 -12 -7 4 -10 60 -11
135 -2 215 -40 227 -107 6 -31 -133 -666 -154 -705 -17 -31 -65 -71 -111 -91
-112 -49 -359 -55 -458 -12 -59 27 -107 75 -117 119 -4 20 23 154 85 422 50
216 89 395 86 397 -2 2 -31 -21 -64 -52z"/>
<path d="M1345 1252 c-70 -33 -74 -43 -141 -335 -35 -149 -63 -284 -64 -298
-1 -102 267 -116 332 -17 19 29 140 558 136 594 -5 47 -48 69 -141 72 -64 2
-91 -2 -122 -16z"/>
</g>
</svg>
