<?xml version="1.0" standalone="no"?>
<!DOCTYPE svg PUBLIC "-//W3C//DTD SVG 20010904//EN"
 "http://www.w3.org/TR/2001/REC-SVG-20010904/DTD/svg10.dtd">
<svg version="1.0" xmlns="http://www.w3.org/2000/svg"
 width="300.000000pt" height="292.000000pt" viewBox="0 0 300.000000 292.000000"
 preserveAspectRatio="xMidYMid meet">
<metadata>
Created by potrace 1.10, written by Peter Selinger 2001-2011
</metadata>
<g transform="translate(0.000000,292.000000) scale(0.100000,-0.100000)"
fill="#000000" stroke="none">
<path d="M1807 2909 c-546 -45 -885 -242 -990 -574 -9 -27 -96 -399 -193 -825
-195 -857 -194 -851 -140 -929 79 -114 280 -175 576 -175 193 1 400 27 400 52
0 4 -71 8 -158 8 -229 2 -367 37 -457 116 -59 52 -84 106 -85 179 0 75 329
1518 360 1579 94 184 374 293 786 307 378 13 630 -66 744 -232 37 -53 64 -154
56 -204 -4 -20 -97 -431 -208 -913 -111 -483 -199 -880 -195 -884 11 -12 133
84 208 164 80 86 128 158 164 249 13 32 90 346 171 698 139 603 148 646 147
740 0 76 -5 114 -21 159 -127 353 -563 535 -1165 485z"/>
<path d="M1751 2510 c-100 -11 -200 -31 -206 -40 -2 -4 71 -10 163 -13 186 -6
275 -22 366 -66 110 -52 168 -132 168 -230 -1 -73 -324 -1496 -357 -1569 -73
-160 -292 -268 -625 -307 -467 -55 -825 45 -931 261 -27 54 -32 75 -31 132 1
49 54 296 205 947 112 484 200 882 196 883 -15 6 -130 -82 -191 -145 -79 -81
-152 -192 -182 -276 -15 -40 -92 -355 -173 -702 -164 -708 -169 -741 -125
-880 66 -213 275 -380 567 -455 249 -64 629 -58 932 15 343 82 569 259 653
512 38 114 370 1593 370 1649 0 132 -107 219 -322 265 -106 23 -359 33 -477
19z"/>
</g>
</svg>
