<?xml version="1.0" standalone="no"?>
<!DOCTYPE svg PUBLIC "-//W3C//DTD SVG 20010904//EN"
 "http://www.w3.org/TR/2001/REC-SVG-20010904/DTD/svg10.dtd">
<svg version="1.0" xmlns="http://www.w3.org/2000/svg"
 width="900.000000pt" height="800.000000pt" viewBox="0 0 900.000000 800.000000"
 preserveAspectRatio="xMidYMid meet">

<g transform="translate(0.000000,800.000000) scale(0.100000,-0.100000)"
fill="#000000" stroke="none">
<path d="M0 7780 l0 -220 393 -2 392 -3 5 -2080 c6 -2272 1 -2077 61 -2370 45
-221 166 -521 284 -705 122 -191 328 -407 510 -535 305 -215 663 -355 1090
-425 123 -20 429 -50 513 -50 l47 0 161 -158 c234 -230 428 -381 699 -544 444
-268 902 -433 1446 -522 35 -6 37 -5 42 26 21 119 67 393 67 399 0 5 -33 18
-72 29 -72 21 -187 59 -303 100 -245 88 -670 323 -855 474 -214 174 -308 261
-450 421 -191 214 -325 412 -460 680 -196 386 -293 740 -331 1200 -14 170 -6
501 15 640 65 417 186 763 383 1090 58 95 160 246 200 295 245 301 481 520
773 715 69 46 175 113 235 148 l110 63 3 293 2 293 -30 -7 c-30 -7 -282 -101
-342 -129 -157 -71 -261 -123 -363 -180 -668 -379 -1172 -901 -1485 -1541
-117 -239 -226 -556 -264 -770 -12 -63 -27 -151 -31 -175 -46 -268 -43 -783 6
-1070 53 -313 121 -552 225 -796 69 -163 125 -269 254 -486 l22 -38 -34 6
c-69 13 -221 56 -297 84 -365 134 -640 396 -792 755 -94 221 -141 431 -170
750 -8 81 -12 811 -14 2245 -1 1169 -3 2169 -4 2223 l-1 97 -820 0 -820 0 0
-220z"/>
<path d="M4340 7780 l0 -220 750 0 750 0 0 220 0 220 -750 0 -750 0 0 -220z"/>
<path d="M6175 7233 c-55 -1 -153 -8 -217 -14 l-118 -12 0 -1816 c0 -1553 -2
-1843 -15 -2001 -30 -347 -76 -535 -189 -766 -80 -161 -215 -364 -244 -364 -5
0 -34 33 -64 72 -174 230 -269 448 -322 738 -42 230 -46 364 -46 1460 0 578
-4 1050 -8 1050 -12 0 -180 -183 -262 -284 -159 -197 -325 -487 -405 -711 -39
-107 -99 -329 -110 -408 -3 -27 -8 -59 -11 -70 -10 -50 -24 -260 -24 -367 0
-105 15 -346 24 -395 2 -11 7 -40 11 -65 31 -209 109 -483 190 -675 80 -190
229 -445 366 -626 130 -174 425 -450 624 -586 227 -155 552 -305 785 -363 275
-68 444 -90 706 -90 513 0 1006 118 1384 330 48 28 98 58 111 68 l22 19 -53
80 -53 80 -66 -30 c-246 -111 -628 -187 -947 -187 -304 0 -654 69 -928 184
-165 69 -385 207 -493 309 l-32 30 97 77 c107 86 303 282 374 375 169 222 288
474 357 753 82 339 81 301 81 2166 l0 1629 138 -7 c563 -29 1025 -260 1295
-647 115 -164 206 -416 219 -604 l3 -40 185 -37 c102 -20 188 -33 191 -30 4 4
16 68 28 142 13 74 29 169 36 210 36 199 56 316 75 435 12 72 28 162 35 200 7
39 16 88 20 110 12 82 46 281 55 325 5 25 11 61 15 82 l6 36 -43 7 c-56 8
-235 42 -320 61 -93 20 -98 19 -98 -13 0 -16 -4 -44 -9 -63 -5 -19 -15 -74
-21 -121 -6 -47 -15 -91 -19 -97 -5 -9 -51 8 -157 57 -425 197 -869 322 -1314
371 -248 26 -584 40 -845 33z"/>
</g>
</svg>
