<?xml version="1.0" standalone="no"?>
<!DOCTYPE svg PUBLIC "-//W3C//DTD SVG 20010904//EN"
 "http://www.w3.org/TR/2001/REC-SVG-20010904/DTD/svg10.dtd">
<svg version="1.0" xmlns="http://www.w3.org/2000/svg"
 width="96.000000pt" height="96.000000pt" viewBox="0 0 96.000000 96.000000"
 preserveAspectRatio="xMidYMid meet">
<metadata>
Created by potrace 1.10, written by Peter Selinger 2001-2011
</metadata>
<g transform="translate(0.000000,96.000000) scale(0.100000,-0.100000)"
fill="#000000" stroke="none">
<path d="M247 862 c-23 -25 -22 -85 1 -105 25 -23 85 -22 105 1 23 25 22 85
-1 105 -25 23 -85 22 -105 -1z"/>
<path d="M497 831 c-3 -14 -15 -21 -43 -23 -34 -3 -39 -6 -39 -28 l0 -25 168
-3 167 -2 0 -150 0 -149 -152 -3 -153 -3 0 -25 c0 -23 4 -25 51 -28 l51 -3 27
-105 c48 -184 44 -174 71 -174 20 0 25 5 25 26 0 21 -25 128 -56 237 -5 15 3
17 71 17 67 0 79 3 100 25 24 24 25 27 25 185 0 158 -1 161 -25 185 -22 23
-31 25 -125 25 -93 0 -102 2 -107 20 -7 27 -49 27 -56 1z"/>
<path d="M203 666 l-37 -34 -4 -99 c-4 -103 5 -143 33 -143 12 0 15 -26 17
-137 l3 -138 25 0 c23 0 26 5 32 55 3 30 6 92 7 138 1 75 3 82 21 82 18 0 20
-7 21 -82 1 -46 4 -108 7 -138 6 -50 9 -55 32 -55 l25 0 3 233 c2 211 7 254
27 222 19 -31 180 36 180 75 0 29 -36 30 -91 2 l-48 -24 -49 38 c-44 35 -54
39 -108 39 -53 0 -63 -3 -96 -34z"/>
</g>
</svg>
