<svg xmlns="http://www.w3.org/2000/svg" xmlns:xlink="http://www.w3.org/1999/xlink" viewBox="0,0,256,256" width="50px" height="50px" fill-rule="nonzero"><g fill="#080000" fill-rule="nonzero" stroke="none" stroke-width="1" stroke-linecap="butt" stroke-linejoin="miter" stroke-miterlimit="10" stroke-dasharray="" stroke-dashoffset="0" font-family="none" font-weight="none" font-size="none" text-anchor="none" style="mix-blend-mode: normal"><path d="M0,256v-256h256v256z" id="bgRectangle"></path></g><g fill="#ff0101" fill-rule="nonzero" stroke="none" stroke-width="1" stroke-linecap="butt" stroke-linejoin="miter" stroke-miterlimit="10" stroke-dasharray="" stroke-dashoffset="0" font-family="none" font-weight="none" font-size="none" text-anchor="none" style="mix-blend-mode: normal"><g transform="scale(5.12,5.12)"><path d="M25.9707,0c-0.25501,0.00764 -0.49746,0.11244 -0.67773,0.29297c0,0 -1.86236,1.84214 -4.60937,2.75781c-0.27514,0.09169 -0.49693,0.2983 -0.60787,0.56626c-0.11093,0.26796 -0.10008,0.57088 0.02974,0.83022c0.36308,0.72617 0.54566,1.20812 0.66797,1.57813c-1.73393,0.35962 -3.56531,1.07032 -5.26953,2.25977c-0.36363,-0.79746 -0.97497,-1.63886 -2.05664,-2.17969c-0.23167,-0.11583 -0.38018,-0.2994 -0.50781,-0.65039c-0.12763,-0.35099 -0.18945,-0.84165 -0.18945,-1.33008c0,-0.97685 0.2207,-1.88281 0.2207,-1.88281c0.07392,-0.29614 0.00856,-0.60982 -0.17749,-0.85179c-0.18604,-0.24197 -0.4724,-0.38574 -0.77759,-0.39039c-0.16053,-0.00251 -0.3193,0.03367 -0.46289,0.10547c0,0 -0.26104,0.1399 -0.52734,0.36523c-0.2663,0.22533 -0.60522,0.56879 -0.96484,1.07227c-0.70969,0.99356 -1.49273,2.62288 -2.01563,5.17578c-0.82143,1.41293 -1.11997,2.78354 -0.94336,3.98242c0.18723,1.27096 0.82297,2.30939 1.53711,3.10547c0.44626,0.49746 0.91961,0.88476 1.37695,1.22266c-1.37329,5.84175 -1.94187,14.85952 2.43359,28.45117c-0.23404,-0.11661 -0.50051,-0.23383 -0.70312,-0.34961c-1.61642,-0.92367 -2.26344,-1.77689 -2.53906,-2.32812c-0.13781,-0.27562 -0.18406,-0.47985 -0.20117,-0.59961c-0.01711,-0.11975 -0.01367,-0.07812 -0.01367,-0.07812c0.03988,-0.28491 -0.04487,-0.57319 -0.23258,-0.79119c-0.18771,-0.218 -0.46022,-0.34461 -0.74788,-0.34748c-0.51305,-0.00514 -0.94677,0.37879 -1.00391,0.88867c0,0 -0.02781,0.29163 0.01758,0.60938c0.04539,0.31775 0.15539,0.73851 0.39258,1.21289c0.47438,0.94876 1.45236,2.09555 3.33594,3.17188c3.37861,1.93064 9.72192,3.70788 21.86914,4.05664c0.23101,0.0938 0.48872,0.09798 0.72266,0.01172c1.18774,0.02819 2.35499,0.0625 3.6543,0.0625c0.36064,0.0051 0.69608,-0.18438 0.87789,-0.49587c0.18181,-0.3115 0.18181,-0.69676 0,-1.00825c-0.18181,-0.3115 -0.51725,-0.50097 -0.87789,-0.49587c-1.0467,0 -1.96827,-0.03162 -2.93945,-0.05078c0.26671,-4.79972 -0.63424,-8.55507 -0.95703,-9.70703c0.84521,-0.90536 1.34976,-2.20575 1.61133,-3.68945c1.14363,0.39092 2.40298,0.22911 3.32617,-0.45898c0.66734,-0.4974 1.16195,-1.3148 1.18555,-2.25586c0.01396,-0.5565 -0.14499,-1.12678 -0.43164,-1.69727c1.13662,-0.43528 2.05433,-1.23715 2.66797,-2.03516c0,-0.00065 0,-0.0013 0,-0.00195c0.48873,-0.63592 1.46287,-1.47935 2.38867,-2.41406c0.92581,-0.93471 1.86497,-1.98155 2.13086,-3.36719c0.59766,-3.11522 -0.97287,-5.59913 -2.00391,-6.85156c0.12923,-2.0037 -0.65118,-3.72661 -2.91602,-3.97656c-1.1179,-0.42778 -2.16432,-0.67603 -3.14062,-0.78125c-2.98559,-0.32178 -5.3166,0.64667 -7.04102,1.5625c-0.02973,0.01579 -0.05064,0.02727 -0.08008,0.04297c-0.46752,-1.18481 -1.22129,-2.43339 -2.24805,-3.53516c0.31404,-0.49599 0.48912,-1.03941 0.48438,-1.55664c-0.00748,-0.81645 -0.32614,-1.51202 -0.6875,-2.08594c-0.56496,-0.89726 -1.05496,-1.25408 -1.34961,-1.50391v-2.63672c0.00009,-0.27036 -0.10929,-0.52924 -0.3032,-0.71764c-0.19392,-0.1884 -0.45584,-0.29025 -0.72609,-0.28236zM25,3.04297v0.95703c-0.0003,0.30488 0.13849,0.59324 0.37695,0.7832c0,0 0.79452,0.65391 1.2793,1.42383c0.24239,0.38496 0.37841,0.77129 0.38086,1.03906c0.00065,0.06977 -0.00287,0.13396 -0.01367,0.19727c-1.17777,-0.8455 -2.5851,-1.45969 -4.16797,-1.56641c-0.00892,-0.0006 -0.01841,0.00057 -0.02734,0c-0.0022,-0.00836 -0.00164,-0.01307 -0.00391,-0.02148c-0.08385,-0.3107 -0.35571,-0.89868 -0.5625,-1.39453c1.03811,-0.45321 2.0467,-0.93578 2.73828,-1.41797zM10.91016,5.1582c0.047,0.33016 0.02996,0.64929 0.15039,0.98047c0.24737,0.68026 0.72386,1.3717 1.49219,1.75586c1.42912,0.71456 1.46875,2.51758 1.46875,2.51758c-0.00082,0.35994 0.19184,0.69256 0.50447,0.87094c0.31263,0.17838 0.697,0.175 1.00645,-0.00885c0.30945,-0.18385 0.49623,-0.5198 0.48908,-0.87967c1.6322,-1.3112 3.45184,-2.05876 5.17969,-2.41406c2.15482,-0.44304 3.91245,0.33152 5.32813,1.60938c1.18652,1.071 2.03771,2.50198 2.47266,3.67773c-0.30793,0.14959 -0.59111,0.27447 -0.81836,0.33594c-0.07545,0.0204 -0.12937,0.02785 -0.19336,0.04297c0.0413,-0.42084 -0.09696,-0.83955 -0.38071,-1.15306c-0.28376,-0.31351 -0.68666,-0.49269 -1.10952,-0.49342c-0.47317,0.00069 -0.91828,0.22459 -1.20089,0.6041c-0.28261,0.3795 -0.36959,0.87011 -0.23466,1.32363c0.0242,0.21257 0.11593,0.41178 0.26172,0.56836c0.94934,1.05395 2.2931,1.3313 3.38086,1.03711c1.08776,-0.2942 2.03581,-0.92099 3.11133,-1.49219c1.16546,-0.61897 2.42906,-1.20039 3.9668,-1.37109c-6.99419,3.13547 -2.33017,7.85061 1.40039,9.22656c-0.16112,0.5862 -0.34287,1.18407 -0.57422,1.78711c-0.63857,1.66452 -1.56246,3.28789 -2.8457,4.46289c-1.28324,1.175 -2.8987,1.93945 -5.1582,1.93945c-0.77041,0 -1.18098,-0.32251 -1.63672,-1.01367c-0.45574,-0.69117 -0.80889,-1.73438 -1.09375,-2.76562c-0.28486,-1.03124 -0.47648,-2.01127 -0.88281,-2.82031c-0.20316,-0.40452 -0.50206,-0.89118 -1.16016,-1.05859c-0.65809,-0.16742 -1.25641,0.1756 -1.66211,0.5625c-0.63591,0.6065 -0.89206,0.58146 -0.98242,0.56055c-0.09036,-0.02091 -0.31395,-0.18496 -0.53516,-0.58203c-0.44241,-0.79414 -0.66406,-2.10742 -0.66406,-2.10742c-0.04298,-0.35955 -0.27695,-0.66778 -0.61171,-0.80585c-0.33475,-0.13807 -0.71799,-0.0844 -1.00194,0.14031c-0.28395,0.22471 -0.42426,0.58536 -0.36682,0.94288c0,0 0.1754,1.50837 0.89648,2.80273c0.36054,0.64718 0.91045,1.34336 1.83203,1.55664c0.83082,0.19227 1.7132,-0.18367 2.53906,-0.87695c0.17893,0.43715 0.40048,1.23624 0.67188,2.21875c0.30026,1.08701 0.66902,2.29884 1.35156,3.33398c0.68255,1.03515 1.82705,1.91211 3.30664,1.91211c2.72999,0 4.90684,-0.99891 6.50781,-2.46484c0.03113,-0.0285 0.05913,-0.05906 0.08984,-0.08789c0.35596,0.33704 0.74999,0.59481 1.17383,0.74023c0.04927,0.01691 0.09903,0.02101 0.14844,0.03516c0.56908,0.67169 0.70694,1.17267 0.69922,1.48047c-0.0079,0.31391 -0.12933,0.5137 -0.38086,0.70117c-0.50306,0.37495 -1.50354,0.43787 -2.13867,-0.19727c-0.28603,-0.28583 -0.71604,-0.37129 -1.08963,-0.21656c-0.37359,0.15474 -0.61724,0.51922 -0.6174,0.92359c0,2.02661 -0.65012,3.29871 -1.54687,4.05859c-0.89675,0.75988 -2.11069,1.04665 -3.42969,0.81641c-2.638,-0.46049 -5.5915,-3.0207 -6.02734,-7.96289c-0.02581,-0.36031 -0.24392,-0.6787 -0.57058,-0.83291c-0.32666,-0.15422 -0.71109,-0.1203 -1.0057,0.08874c-0.29461,0.20904 -0.45359,0.5607 -0.41591,0.91996c0.50116,5.68281 4.04803,9.1226 7.67578,9.75586c1.25791,0.21958 2.53301,0.08888 3.66406,-0.40039c0.37714,1.59834 0.93456,4.75692 0.7168,8.47266c-8.36335,-0.28445 -13.75614,-1.28204 -17.17578,-2.42969c-4.69836,-13.71826 -4.30992,-22.58807 -3.0625,-28.35937c0.01478,0.00643 0.08008,0.03711 0.08008,0.03711c0.50752,0.21843 1.09602,-0.01592 1.31445,-0.52344c0.21843,-0.50752 -0.01592,-1.09602 -0.52344,-1.31445c0,0 -1.50194,-0.66887 -2.56641,-1.85547c-0.53223,-0.5933 -0.93214,-1.28167 -1.04687,-2.06055c-0.11474,-0.77888 0.02406,-1.69478 0.76758,-2.87891c0.0643,-0.10299 0.1093,-0.21682 0.13281,-0.33594c0.26455,-1.32273 0.59509,-2.27533 0.92969,-3.03711zM21.60352,9.93359c-0.43215,-0.02635 -1.01651,0.01154 -1.62305,0.27148c-1.21308,0.51989 -2.42071,1.89846 -2.96094,4.59961c-0.0807,0.3547 0.03755,0.72524 0.30879,0.96762c0.27125,0.24238 0.65271,0.31837 0.99613,0.19843c0.34342,-0.11994 0.59464,-0.41688 0.65602,-0.77543c0.45977,-2.29885 1.25214,-2.92028 1.78906,-3.15039c0.53692,-0.23011 0.91406,-0.0957 0.91406,-0.0957c0.33915,0.11314 0.71289,0.03671 0.98041,-0.20047c0.26752,-0.23718 0.38815,-0.59909 0.31645,-0.94934c-0.0717,-0.35026 -0.32485,-0.63564 -0.66405,-0.74862c0,0 -0.28074,-0.09084 -0.71289,-0.11719zM21.5,13c-0.82843,0 -1.5,0.67157 -1.5,1.5c0,0.82843 0.67157,1.5 1.5,1.5c0.82843,0 1.5,-0.67157 1.5,-1.5c0,-0.82843 -0.67157,-1.5 -1.5,-1.5zM43.33203,18.13477c0.54296,1.02779 0.9663,2.34713 0.68555,3.81055c-0.12211,0.63637 -0.7462,1.48615 -1.58789,2.33594c-0.84169,0.84979 -1.83946,1.67543 -2.55273,2.60352c-0.44374,0.57707 -1.28939,1.26466 -1.97852,1.47461c-0.34456,0.10497 -0.62445,0.10806 -0.87109,0.02344c-0.15864,-0.05443 -0.32645,-0.1568 -0.50391,-0.3418c0.8442,-1.13845 1.47797,-2.39698 1.95508,-3.64062c0.27571,-0.71867 0.48866,-1.42685 0.67383,-2.11523c0.18871,-0.00697 0.36723,-0.02718 0.52344,-0.07227c1.50145,-0.43379 2.87606,-2.14683 3.65625,-4.07812z"></path></g></g></svg>